HIERARCHY
ROOT Hips
{
	OFFSET 0.00 0.00 0.00
	CHANNELS 6 Xposition Yposition Zposition Xrotation Yrotation Zrotation
	JOINT Spine
	{
		OFFSET 0.00000 0.84964 1.27446
		CHANNELS 3 Xrotation Yrotation Zrotation
		JOINT Spine1
		{
			OFFSET 0.00000 0.29508 1.67346
			CHANNELS 3 Xrotation Yrotation Zrotation
			JOINT Spine2
			{
				OFFSET 0.00000 0.14810 1.69281
				CHANNELS 3 Xrotation Yrotation Zrotation
				JOINT Spine3
				{
					OFFSET 0.00000 0.00000 1.69928
					CHANNELS 3 Xrotation Yrotation Zrotation
					JOINT Neck
					{
						OFFSET 0.00000 -0.63723 4.46061
						CHANNELS 3 Xrotation Yrotation Zrotation
						JOINT Head
						{
							OFFSET 0.00000 -0.40573 2.30101
							CHANNELS 3 Xrotation Yrotation Zrotation
							End Site
							{
								OFFSET 0.00000 0.00000 2.75071
							}
						}
					}
					JOINT RightShoulder
					{
						OFFSET -0.72014 -1.20022 3.88874
						CHANNELS 3 Xrotation Yrotation Zrotation
						JOINT RightArm
						{
							OFFSET -3.57668 0.00000 0.00000
							CHANNELS 3 Xrotation Yrotation Zrotation
							JOINT RightForeArm
							{
								OFFSET -5.92485 0.00000 0.00000
								CHANNELS 3 Xrotation Yrotation Zrotation
								JOINT RightHand
								{
									OFFSET -6.63013 0.00000 0.00000
									CHANNELS 3 Xrotation Yrotation Zrotation
									JOINT RightHandEnd
									{
										OFFSET -1.65321 0.00000 0.00000
										CHANNELS 3 Xrotation Yrotation Zrotation
										End Site
										{
											OFFSET -1.65321 0.00000 0.00000
										}
									}
									JOINT RightHandThumb1
									{
										OFFSET -0.66129 -1.10214 -0.44086
										CHANNELS 3 Yrotation Xrotation Zrotation
										End Site
										{
											OFFSET -1.59688 -0.42788 0.00000
										}
									}
								}
							}
						}
					}
					JOINT LeftShoulder
					{
						OFFSET 0.72014 -1.20022 3.88874
						CHANNELS 3 Xrotation Yrotation Zrotation
						JOINT LeftArm
						{
							OFFSET 3.57668 0.00000 0.00000
							CHANNELS 3 Xrotation Yrotation Zrotation
							JOINT LeftForeArm
							{
								OFFSET 5.92485 0.00000 0.00000
								CHANNELS 3 Xrotation Yrotation Zrotation
								JOINT LeftHand
								{
									OFFSET 6.63013 0.00000 0.00000
									CHANNELS 3 Xrotation Yrotation Zrotation
									JOINT LeftHandEnd
									{
										OFFSET 1.65321 0.00000 0.00000
										CHANNELS 3 Xrotation Yrotation Zrotation
										End Site
										{
											OFFSET 1.65321 0.00000 0.00000
										}
									}
									JOINT LeftHandThumb1
									{
										OFFSET 0.66129 -1.10214 -0.44086
										CHANNELS 3 Yrotation Xrotation Zrotation
										End Site
										{
											OFFSET 1.59688 -0.42788 0.00000
										}
									}
								}
							}
						}
					}
				}
			}
		}
	}
	JOINT RightUpLeg
	{
		OFFSET -2.13640 0.00000 -0.62412
		CHANNELS 3 Xrotation Yrotation Zrotation
		JOINT RightLeg
		{
			OFFSET 0.00000 0.00000 -11.49360
			CHANNELS 3 Xrotation Yrotation Zrotation
			JOINT RightFoot
			{
				OFFSET 0.00000 0.00000 -8.79036
				CHANNELS 3 Xrotation Yrotation Zrotation
				JOINT RightToeBase
				{
					OFFSET 0.00000 -3.94625 -1.43632
					CHANNELS 3 Xrotation Yrotation Zrotation
					End Site
					{
						OFFSET 0.00000 -1.72833 -0.00000
					}
				}
			}
		}
	}
	JOINT LeftUpLeg
	{
		OFFSET 2.13640 0.00000 -0.62412
		CHANNELS 3 Xrotation Yrotation Zrotation
		JOINT LeftLeg
		{
			OFFSET 0.00000 0.00000 -11.49360
			CHANNELS 3 Xrotation Yrotation Zrotation
			JOINT LeftFoot
			{
				OFFSET 0.00000 0.00000 -8.79036
				CHANNELS 3 Xrotation Yrotation Zrotation
				JOINT LeftToeBase
				{
					OFFSET 0.00000 -3.94625 -1.43632
					CHANNELS 3 Xrotation Yrotation Zrotation
					End Site
					{
						OFFSET 0.00000 -1.72833 -0.00000
					}
				}
			}
		}
	}
}
MOTION
Frames: 10
Frame Time: 0.008342
 3.2447 8.4252 22.8135 -6.5071 7.2774 173.6805 8.3515 -8.3536 0.7745 1.2887 -2.5637 0.5225 -1.0401 -0.4788 23.8455 0.9023 9.7374 -0.9913 -4.3306 29.9102 -7.0951 -10.8580 2.1142 -54.3766 9.8654 0.0460 10.9779 28.8263 -43.1258 15.1681 -0.0000 0.0001 80.4781 -16.4275 62.8898 41.6280 -0.0000 -0.0000 0.0000 -0.0000 -0.0000 0.0000 -12.3360 25.3875 11.6420 -47.3555 28.0673 43.6938 -0.0000 -0.0001 -70.2685 0.3150 -32.3927 2.2217 0.0000 -0.0000 0.0000 0.0000 -0.0000 -0.0000 -20.6581 28.7406 -21.2003 29.8652 0.0000 0.0000 -9.2099 -10.0651 17.7301 3.0564 0.0000 0.0000 -3.8162 -5.4026 20.6220 19.2815 0.0000 0.0000 -14.2747 2.7649 4.7014 -15.3140 0.0000 -0.0000
 3.2054 8.4262 22.7827 -6.5708 7.4866 173.7910 8.3467 -8.6017 0.8023 1.2976 -2.6391 0.5097 -0.9320 -0.3000 23.9252 1.0442 10.0216 -1.1085 -4.3968 30.0536 -7.1715 -10.8342 2.3058 -54.5625 9.7702 -0.6519 11.0964 28.5438 -41.5470 14.6478 -0.0000 0.0001 80.6961 -16.8604 62.8144 42.4289 -0.0000 0.0000 0.0000 0.0000 -0.0000 -0.0000 -12.4432 25.4083 11.7627 -47.0304 28.0949 43.4600 -0.0000 -0.0001 -70.2631 0.1225 -32.3624 2.2209 -0.0000 -0.0000 -0.0000 0.0000 0.0000 0.0000 -20.6061 28.7263 -20.2398 29.5829 0.0000 0.0000 -10.0247 -10.3975 16.1334 3.4181 0.0000 0.0000 -3.8019 -5.0979 20.4496 19.1361 0.0000 0.0000 -14.6633 3.0055 4.7231 -15.1835 0.0000 -0.0000
 3.1755 8.4276 22.7562 -6.6719 7.5439 174.0003 8.3142 -8.8431 0.8190 1.3126 -2.7406 0.4734 -0.8843 -0.1861 23.9724 1.1578 10.2531 -1.2024 -4.4135 30.1065 -7.3324 -10.8209 2.4838 -54.6983 9.6768 -1.6505 11.1189 28.1779 -39.7769 13.9941 -0.0000 0.0001 80.7701 -17.2296 62.7397 43.3058 0.0000 0.0000 -0.0000 0.0000 0.0000 -0.0000 -12.5029 25.3533 11.7775 -46.7103 28.1413 43.2899 -0.0000 -0.0001 -70.2017 -0.0453 -32.3398 2.2265 -0.0000 0.0000 -0.0000 0.0000 0.0000 0.0000 -20.4474 28.6145 -19.6706 29.2606 0.0000 0.0000 -10.7184 -10.6620 14.7745 3.7851 0.0000 0.0000 -3.8105 -4.9568 20.2321 18.9590 0.0000 0.0000 -15.0393 3.2109 4.7465 -15.0387 0.0000 -0.0000
 3.1556 8.4306 22.7363 -6.7264 7.4400 174.3148 8.3445 -9.0731 0.8194 1.3289 -2.8445 0.4412 -0.9010 -0.1604 23.9431 1.2299 10.4234 -1.2717 -4.3863 30.0727 -7.5665 -10.8144 2.6415 -54.7763 9.5685 -2.8992 11.0498 27.7713 -37.8918 13.2589 -0.0000 0.0001 80.6815 -17.5049 62.6929 44.2301 -0.0000 -0.0000 -0.0000 -0.0000 -0.0000 0.0000 -12.5109 25.2192 11.6880 -46.4250 28.2055 43.2094 -0.0000 -0.0001 -70.0848 -0.1783 -32.3193 2.2423 0.0000 -0.0000 -0.0000 -0.0000 -0.0000 0.0000 -20.0786 28.4168 -19.5554 28.8835 0.0000 0.0000 -11.2515 -10.8598 13.7224 4.1374 0.0000 0.0000 -3.7565 -4.9823 19.9823 18.7407 0.0000 0.0000 -15.3638 3.3818 4.7373 -14.8919 0.0000 -0.0000
 3.1458 8.4324 22.7237 -6.8785 7.1868 174.7793 8.2837 -9.2909 0.8031 1.3542 -2.9594 0.4022 -0.9934 -0.2159 23.8245 1.2711 10.5340 -1.3169 -4.3250 29.9517 -7.8742 -10.8253 2.7712 -54.7892 9.4145 -4.3712 10.8862 27.3559 -35.9692 12.4743 -0.0000 0.0001 80.4288 -17.6682 62.6839 45.1829 -0.0000 -0.0000 -0.0000 0.0000 -0.0000 -0.0000 -12.4768 25.0299 11.4958 -46.1681 28.2627 43.1864 -0.0000 -0.0001 -69.9103 -0.2782 -32.2999 2.2705 -0.0000 -0.0000 0.0000 -0.0000 -0.0000 0.0000 -19.6523 28.1408 -19.9289 28.4598 0.0000 0.0000 -11.5914 -10.9903 13.0190 4.4513 0.0000 0.0000 -3.8350 -5.1873 19.6650 18.5486 0.0000 0.0000 -15.6300 3.5142 4.6926 -14.7518 0.0000 -0.0000
 3.1470 8.4360 22.7205 -6.9575 6.7683 175.3944 8.3025 -9.4898 0.7663 1.3783 -3.0720 0.3584 -1.1517 -0.3673 23.5987 1.2703 10.5748 -1.3474 -4.2396 29.7508 -8.2433 -10.8478 2.8685 -54.7285 9.1901 -5.9912 10.6295 26.9642 -34.1036 11.6822 -0.0000 0.0001 80.0272 -17.6956 62.7234 46.1151 -0.0000 0.0000 -0.0000 0.0000 -0.0000 -0.0000 -12.3981 24.7736 11.2038 -45.9728 28.3226 43.2537 -0.0000 -0.0001 -69.6894 -0.3477 -32.2739 2.3090 -0.0000 -0.0000 -0.0000 -0.0000 -0.0000 -0.0000 -18.9626 27.7859 -20.8412 27.9567 0.0000 0.0000 -11.7206 -11.0612 12.7000 4.7075 0.0000 0.0000 -3.8647 -5.5735 19.2912 18.3554 0.0000 0.0000 -15.7981 3.6208 4.5675 -14.6310 0.0000 -0.0000
 3.1593 8.4388 22.7265 -7.0948 6.2018 176.2003 8.2426 -9.6635 0.7001 1.4088 -3.1827 0.3077 -1.3656 -0.6041 23.2237 1.2278 10.5350 -1.3398 -4.1404 29.4745 -8.6569 -10.8931 2.9363 -54.6036 8.8849 -7.7151 10.2783 26.5902 -32.3645 10.8943 -0.0000 0.0001 79.5086 -17.6009 62.8112 47.0045 -0.0000 -0.0000 0.0000 0.0000 -0.0000 0.0000 -12.2888 24.4657 10.8179 -45.8382 28.3734 43.3950 -0.0000 -0.0001 -69.4298 -0.3884 -32.2252 2.3582 -0.0000 -0.0000 -0.0000 -0.0000 0.0000 0.0000 -18.1557 27.3526 -22.2938 27.3825 0.0000 0.0000 -11.6335 -11.0759 12.7656 4.8888 0.0000 0.0000 -4.0314 -6.1443 18.8146 18.2256 0.0000 0.0000 -15.8709 3.7044 4.3653 -14.5372 0.0000 -0.0000
 3.1834 8.4422 22.7419 -7.2288 5.4992 177.1877 8.1639 -9.8072 0.6227 1.4344 -3.2749 0.2550 -1.6289 -0.9286 22.6997 1.1563 10.4215 -1.3219 -4.0410 29.1267 -9.1170 -10.9581 2.9605 -54.4015 8.4721 -9.4902 9.8284 26.2406 -30.8377 10.1199 -0.0000 0.0001 78.9230 -17.3807 62.9236 47.8017 0.0000 0.0000 -0.0000 -0.0000 -0.0000 0.0000 -12.1227 24.1164 10.3312 -45.7826 28.4126 43.5797 -0.0000 -0.0001 -69.1430 -0.4167 -32.1720 2.4154 0.0000 0.0000 -0.0000 -0.0000 0.0000 0.0000 -17.1780 26.8371 -24.2682 26.7244 0.0000 0.0000 -11.3387 -11.0363 13.2084 4.9862 0.0000 0.0000 -4.2779 -6.8851 18.2554 18.1452 0.0000 0.0000 -15.8258 3.7765 4.0507 -14.4791 0.0000 -0.0000
 3.2193 8.4464 22.7661 -7.3630 4.6786 178.3711 8.0387 -9.8999 0.5134 1.4573 -3.3604 0.1983 -1.9217 -1.3287 22.0124 1.0571 10.2421 -1.2923 -3.9590 28.6971 -9.6004 -11.0470 2.9450 -54.1229 7.9705 -11.2816 9.3038 25.8697 -29.5678 9.3322 -0.0000 0.0001 78.3350 -17.0558 63.0406 48.4675 -0.0000 -0.0000 -0.0000 -0.0000 -0.0000 0.0000 -11.9606 23.6918 9.7855 -45.7681 28.4610 43.8160 -0.0000 -0.0001 -68.8482 -0.4315 -32.0931 2.4795 -0.0000 -0.0000 -0.0000 0.0000 0.0000 0.0000 -16.0414 26.2388 -26.7535 25.9761 0.0000 0.0000 -10.8525 -10.9495 14.0076 4.9922 0.0000 0.0000 -4.6324 -7.7745 17.5753 18.1229 0.0000 0.0000 -15.6591 3.8418 3.6301 -14.4585 0.0000 -0.0000
 3.2675 8.4522 22.7983 -7.4796 3.7445 179.7487 7.8774 -9.9443 0.3791 1.4729 -3.4353 0.1347 -2.2408 -1.7911 21.1589 0.9405 9.9846 -1.2444 -3.8964 28.2045 -10.1053 -11.1593 2.8827 -53.7763 7.3819 -13.0354 8.6836 25.4631 -28.6026 8.5446 -0.0000 0.0001 77.7986 -16.6436 63.1358 48.9586 0.0000 -0.0000 0.0000 -0.0000 0.0000 0.0000 -11.7560 23.2237 9.1564 -45.8150 28.5112 44.0602 -0.0000 -0.0001 -68.5559 -0.4518 -32.0038 2.5417 0.0000 -0.0000 -0.0000 -0.0000 0.0000 0.0000 -14.7453 25.5294 -29.7114 25.1308 0.0000 0.0000 -10.2011 -10.8171 15.1182 4.9101 0.0000 0.0000 -5.0951 -8.8063 16.7581 18.1606 0.0000 0.0000 -15.3760 3.9066 3.1022 -14.4768 0.0000 -0.0000
